<?xml version="1.0" encoding="UTF-8" standalone="no"?>
<svg
   xmlns:dc="http://purl.org/dc/elements/1.1/"
   xmlns:cc="http://creativecommons.org/ns#"
   xmlns:rdf="http://www.w3.org/1999/02/22-rdf-syntax-ns#"
   xmlns:svg="http://www.w3.org/2000/svg"
   xmlns="http://www.w3.org/2000/svg"
   xmlns:sodipodi="http://sodipodi.sourceforge.net/DTD/sodipodi-0.dtd"
   xmlns:inkscape="http://www.inkscape.org/namespaces/inkscape"
   viewBox="255 259.5217 380 117.9565"
   width="5000"
   height="1552.0592105263158"
   preserveAspectRatio="none"
   version="1.1"
   id="svg214"
   sodipodi:docname="Original_v3.svg"
   inkscape:version="1.0 (4035a4f, 2020-05-01)">
  <metadata
     id="metadata218">
    <rdf:RDF>
      <cc:Work
         rdf:about="">
        <dc:format>image/svg+xml</dc:format>
        <dc:type
           rdf:resource="http://purl.org/dc/dcmitype/StillImage" />
        <dc:title></dc:title>
      </cc:Work>
    </rdf:RDF>
  </metadata>
  <sodipodi:namedview
     inkscape:document-rotation="0"
     pagecolor="#ffffff"
     bordercolor="#666666"
     borderopacity="1"
     objecttolerance="10"
     gridtolerance="10"
     guidetolerance="10"
     inkscape:pageopacity="0"
     inkscape:pageshadow="2"
     inkscape:window-width="1280"
     inkscape:window-height="699"
     id="namedview216"
     showgrid="false"
     inkscape:zoom="0.15092995"
     inkscape:cx="1172.1699"
     inkscape:cy="2246.6241"
     inkscape:window-x="0"
     inkscape:window-y="25"
     inkscape:window-maximized="0"
     inkscape:current-layer="svg204" />
  <defs
     id="defs190">
    <rect
       x="558.66222"
       y="359.8417"
       width="0.47878524"
       height="7.7353619"
       id="rect228" />
    <rect
       x="257.28662"
       y="356.89847"
       width="328.39782"
       height="19.156559"
       id="rect222" />
  </defs>
  <style
     id="style192">.a6izo4zJpcolor {fill:#CCBF90;fill-opacity:1;}.companyName {fill:#CCBF90;fill-opacity:1;}.icon3-str {stroke:#EB63DD;stroke-opacity:1;}.shapeStroke-str {stroke:#CCBF90;stroke-opacity:1;}</style>
  <g
     opacity="1"
     transform="rotate(0 255 355.5951)"
     id="g199">
    <svg
       width="325.50089"
       height="21.883101"
       x="255"
       y="355.59509"
       version="1.1"
       preserveAspectRatio="none"
       viewBox="4.2 -30.28 569.4 38.28"
       id="svg197"
       inkscape:transform-center-y="822.77219"
       inkscape:transform-center-x="254.68118">
      <g
         class="a6izo4zJpcolor"
         id="g195"
         transform="matrix(1.1602169,0,0,1.850036,-0.01071167,-6.3136625)">
        <path
           id="id-6izo4zJp26"
           d="m 4.2,0 v -28 h 4 V 0 Z m 24.36,-21.4 q 4.04,0 6.42,2.34 2.38,2.34 2.38,6.86 v 0 V 0 h -3.84 v -11.76 q 0,-3.08 -1.48,-4.64 -1.48,-1.56 -4.24,-1.56 v 0 q -3.12,0 -4.92,1.82 -1.8,1.82 -1.8,5.22 v 0 V 0 h -3.84 v -21.2 h 3.68 v 3.2 q 1.16,-1.64 3.14,-2.52 1.98,-0.88 4.5,-0.88 z m 31.72,0.2 h 3.76 L 54.76,0 h -3.92 l -9.28,-21.2 h 4 l 7.28,17 z m 27.12,10.72 q 0,0.44 -0.08,1.16 v 0 h -17.2 q 0.36,2.8 2.46,4.5 2.1,1.7 5.22,1.7 v 0 q 3.8,0 6.12,-2.56 v 0 l 2.12,2.48 q -1.44,1.68 -3.58,2.56 -2.14,0.88 -4.78,0.88 v 0 q -3.36,0 -5.96,-1.38 -2.6,-1.38 -4.02,-3.86 -1.42,-2.48 -1.42,-5.6 v 0 q 0,-3.08 1.38,-5.56 1.38,-2.48 3.8,-3.86 2.42,-1.38 5.46,-1.38 v 0 q 3.04,0 5.42,1.38 2.38,1.38 3.72,3.86 1.34,2.48 1.34,5.68 z m -10.48,-7.68 q -2.76,0 -4.62,1.68 -1.86,1.68 -2.18,4.4 v 0 h 13.6 q -0.32,-2.68 -2.18,-4.38 -1.86,-1.7 -4.62,-1.7 z M 100,0.24 q -2.6,0 -5,-0.7 -2.4,-0.7 -3.76,-1.78 v 0 l 1.6,-3.04 q 1.4,1 3.4,1.6 2,0.6 4.04,0.6 v 0 q 5.04,0 5.04,-2.88 v 0 q 0,-0.96 -0.68,-1.52 -0.68,-0.56 -1.7,-0.82 -1.02,-0.26 -2.9,-0.58 v 0 q -2.56,-0.4 -4.18,-0.92 -1.62,-0.52 -2.78,-1.76 -1.16,-1.24 -1.16,-3.48 v 0 q 0,-2.88 2.4,-4.62 2.4,-1.74 6.44,-1.74 v 0 q 2.12,0 4.24,0.52 2.12,0.52 3.48,1.4 v 0 l -1.64,3.04 q -2.6,-1.68 -6.12,-1.68 v 0 q -2.44,0 -3.72,0.8 -1.28,0.8 -1.28,2.12 v 0 q 0,1.04 0.72,1.64 0.72,0.6 1.78,0.88 1.06,0.28 2.98,0.64 v 0 q 2.56,0.44 4.14,0.94 1.58,0.5 2.7,1.7 1.12,1.2 1.12,3.36 v 0 q 0,2.88 -2.46,4.58 -2.46,1.7 -6.7,1.7 z m 25.88,-4.24 1.2,2.76 q -0.84,0.72 -2.08,1.1 -1.24,0.38 -2.56,0.38 v 0 q -3.2,0 -4.96,-1.72 -1.76,-1.72 -1.76,-4.92 v 0 -11.64 h -3.6 v -3.16 h 3.6 v -4.64 h 3.84 v 4.64 h 6.08 v 3.16 h -6.08 v 11.48 q 0,1.72 0.86,2.64 0.86,0.92 2.46,0.92 v 0 q 1.76,0 3,-1 z m 33.56,-17.4 q 4,0 6.34,2.32 2.34,2.32 2.34,6.88 v 0 V 0 h -3.84 v -11.76 q 0,-3.08 -1.42,-4.64 -1.42,-1.56 -4.06,-1.56 v 0 q -2.92,0 -4.64,1.82 -1.72,1.82 -1.72,5.22 v 0 V 0 h -3.84 v -11.76 q 0,-3.08 -1.42,-4.64 -1.42,-1.56 -4.06,-1.56 v 0 q -2.92,0 -4.64,1.82 -1.72,1.82 -1.72,5.22 v 0 V 0 h -3.84 v -21.2 h 3.68 v 3.16 q 1.16,-1.64 3.04,-2.5 1.88,-0.86 4.28,-0.86 v 0 q 2.48,0 4.4,1 1.92,1 2.96,2.92 v 0 q 1.2,-1.84 3.34,-2.88 2.14,-1.04 4.82,-1.04 z m 36.24,10.92 q 0,0.44 -0.08,1.16 v 0 h -17.2 q 0.36,2.8 2.46,4.5 2.1,1.7 5.22,1.7 v 0 q 3.8,0 6.12,-2.56 v 0 l 2.12,2.48 q -1.44,1.68 -3.58,2.56 -2.14,0.88 -4.78,0.88 v 0 q -3.36,0 -5.96,-1.38 -2.6,-1.38 -4.02,-3.86 -1.42,-2.48 -1.42,-5.6 v 0 q 0,-3.08 1.38,-5.56 1.38,-2.48 3.8,-3.86 2.42,-1.38 5.46,-1.38 v 0 q 3.04,0 5.42,1.38 2.38,1.38 3.72,3.86 1.34,2.48 1.34,5.68 z m -10.48,-7.68 q -2.76,0 -4.62,1.68 -1.86,1.68 -2.18,4.4 v 0 H 192 q -0.32,-2.68 -2.18,-4.38 -1.86,-1.7 -4.62,-1.7 z m 28.32,-3.24 q 4.04,0 6.42,2.34 2.38,2.34 2.38,6.86 v 0 V 0 h -3.84 v -11.76 q 0,-3.08 -1.48,-4.64 -1.48,-1.56 -4.24,-1.56 v 0 q -3.12,0 -4.92,1.82 -1.8,1.82 -1.8,5.22 v 0 V 0 h -3.84 v -21.2 h 3.68 v 3.2 q 1.16,-1.64 3.14,-2.52 1.98,-0.88 4.5,-0.88 z m 27.84,17.4 1.2,2.76 q -0.84,0.72 -2.08,1.1 -1.24,0.38 -2.56,0.38 v 0 q -3.2,0 -4.96,-1.72 -1.76,-1.72 -1.76,-4.92 v 0 -11.64 h -3.6 v -3.16 h 3.6 v -4.64 h 3.84 v 4.64 h 6.08 v 3.16 h -6.08 v 11.48 q 0,1.72 0.86,2.64 0.86,0.92 2.46,0.92 v 0 q 1.76,0 3,-1 z m 30.32,-17.4 q 4.04,0 6.42,2.34 2.38,2.34 2.38,6.86 v 0 V 0 h -3.84 v -11.76 q 0,-3.08 -1.48,-4.64 -1.48,-1.56 -4.24,-1.56 v 0 q -3.12,0 -4.92,1.82 -1.8,1.82 -1.8,5.22 v 0 V 0 h -3.84 v -29.68 h 3.84 v 11.48 q 1.2,-1.52 3.14,-2.36 1.94,-0.84 4.34,-0.84 z m 36.4,10.92 q 0,0.44 -0.08,1.16 v 0 h -17.2 q 0.36,2.8 2.46,4.5 2.1,1.7 5.22,1.7 v 0 q 3.8,0 6.12,-2.56 v 0 l 2.12,2.48 q -1.44,1.68 -3.58,2.56 -2.14,0.88 -4.78,0.88 v 0 q -3.36,0 -5.96,-1.38 -2.6,-1.38 -4.02,-3.86 -1.42,-2.48 -1.42,-5.6 v 0 q 0,-3.08 1.38,-5.56 1.38,-2.48 3.8,-3.86 2.42,-1.38 5.46,-1.38 v 0 q 3.04,0 5.42,1.38 2.38,1.38 3.72,3.86 1.34,2.48 1.34,5.68 z m -10.48,-7.68 q -2.76,0 -4.62,1.68 -1.86,1.68 -2.18,4.4 v 0 h 13.6 q -0.32,-2.68 -2.18,-4.38 -1.86,-1.7 -4.62,-1.7 z M 314.6,0 v -29.68 h 3.84 V 0 Z m 23.6,-21.4 q 3.08,0 5.52,1.36 2.44,1.36 3.82,3.8 1.38,2.44 1.38,5.64 v 0 q 0,3.2 -1.38,5.66 -1.38,2.46 -3.82,3.82 -2.44,1.36 -5.52,1.36 v 0 q -2.28,0 -4.18,-0.88 -1.9,-0.88 -3.22,-2.56 v 0 10.96 h -3.84 V -21.2 h 3.68 v 3.36 q 1.28,-1.76 3.24,-2.66 1.96,-0.9 4.32,-0.9 z m -0.32,18.28 q 2.04,0 3.66,-0.94 1.62,-0.94 2.56,-2.64 0.94,-1.7 0.94,-3.9 v 0 q 0,-2.2 -0.94,-3.9 -0.94,-1.7 -2.56,-2.62 -1.62,-0.92 -3.66,-0.92 v 0 q -2,0 -3.62,0.94 -1.62,0.94 -2.56,2.62 -0.94,1.68 -0.94,3.88 v 0 q 0,2.2 0.92,3.9 0.92,1.7 2.56,2.64 1.64,0.94 3.64,0.94 z m 35.6,3.36 q -2.6,0 -5,-0.7 -2.4,-0.7 -3.76,-1.78 v 0 l 1.6,-3.04 q 1.4,1 3.4,1.6 2,0.6 4.04,0.6 v 0 q 5.04,0 5.04,-2.88 v 0 q 0,-0.96 -0.68,-1.52 -0.68,-0.56 -1.7,-0.82 -1.02,-0.26 -2.9,-0.58 v 0 q -2.56,-0.4 -4.18,-0.92 -1.62,-0.52 -2.78,-1.76 -1.16,-1.24 -1.16,-3.48 v 0 q 0,-2.88 2.4,-4.62 2.4,-1.74 6.44,-1.74 v 0 q 2.12,0 4.24,0.52 2.12,0.52 3.48,1.4 v 0 l -1.64,3.04 q -2.6,-1.68 -6.12,-1.68 v 0 q -2.44,0 -3.72,0.8 -1.28,0.8 -1.28,2.12 v 0 q 0,1.04 0.72,1.64 0.72,0.6 1.78,0.88 1.06,0.28 2.98,0.64 v 0 q 2.56,0.44 4.14,0.94 1.58,0.5 2.7,1.7 1.12,1.2 1.12,3.36 v 0 q 0,2.88 -2.46,4.58 -2.46,1.7 -6.7,1.7 z m 25.88,-4.24 1.2,2.76 q -0.84,0.72 -2.08,1.1 -1.24,0.38 -2.56,0.38 v 0 q -3.2,0 -4.96,-1.72 -1.76,-1.72 -1.76,-4.92 v 0 -11.64 h -3.6 v -3.16 h 3.6 v -4.64 h 3.84 v 4.64 h 6.08 v 3.16 h -6.08 v 11.48 q 0,1.72 0.86,2.64 0.86,0.92 2.46,0.92 v 0 q 1.76,0 3,-1 z m 10.72,-13.64 q 1,-1.84 2.96,-2.8 1.96,-0.96 4.76,-0.96 v 0 3.72 q -0.32,-0.04 -0.88,-0.04 v 0 q -3.12,0 -4.9,1.86 -1.78,1.86 -1.78,5.3 v 0 V 0 h -3.84 v -21.2 h 3.68 z m 21.32,-3.76 q 4.4,0 6.74,2.16 2.34,2.16 2.34,6.44 v 0 V 0 h -3.64 v -2.8 q -0.96,1.48 -2.74,2.26 -1.78,0.78 -4.22,0.78 v 0 q -3.56,0 -5.7,-1.72 -2.14,-1.72 -2.14,-4.52 v 0 q 0,-2.8 2.04,-4.5 2.04,-1.7 6.48,-1.7 v 0 h 6.08 v -0.76 q 0,-2.48 -1.44,-3.8 -1.44,-1.32 -4.24,-1.32 v 0 q -1.88,0 -3.68,0.62 -1.8,0.62 -3.04,1.66 v 0 l -1.6,-2.88 q 1.64,-1.32 3.92,-2.02 2.28,-0.7 4.84,-0.7 z m -0.88,18.68 q 2.2,0 3.8,-0.98 1.6,-0.98 2.32,-2.78 v 0 -2.96 h -5.92 q -4.88,0 -4.88,3.28 v 0 q 0,1.6 1.24,2.52 1.24,0.92 3.44,0.92 z m 29,-1.28 1.2,2.76 q -0.84,0.72 -2.08,1.1 -1.24,0.38 -2.56,0.38 v 0 q -3.2,0 -4.96,-1.72 -1.76,-1.72 -1.76,-4.92 v 0 -11.64 h -3.6 v -3.16 h 3.6 v -4.64 h 3.84 v 4.64 h 6.08 v 3.16 h -6.08 v 11.48 q 0,1.72 0.86,2.64 0.86,0.92 2.46,0.92 v 0 q 1.76,0 3,-1 z M 485,-10.48 q 0,0.44 -0.08,1.16 v 0 h -17.2 q 0.36,2.8 2.46,4.5 2.1,1.7 5.22,1.7 v 0 q 3.8,0 6.12,-2.56 v 0 l 2.12,2.48 q -1.44,1.68 -3.58,2.56 -2.14,0.88 -4.78,0.88 v 0 q -3.36,0 -5.96,-1.38 -2.6,-1.38 -4.02,-3.86 -1.42,-2.48 -1.42,-5.6 v 0 q 0,-3.08 1.38,-5.56 1.38,-2.48 3.8,-3.86 2.42,-1.38 5.46,-1.38 v 0 q 3.04,0 5.42,1.38 2.38,1.38 3.72,3.86 1.34,2.48 1.34,5.68 z m -10.48,-7.68 q -2.76,0 -4.62,1.68 -1.86,1.68 -2.18,4.4 v 0 h 13.6 q -0.32,-2.68 -2.18,-4.38 -1.86,-1.7 -4.62,-1.7 z m 33.64,-3.04 h 3.64 v 18.32 q 0,5.56 -2.76,8.22 Q 506.28,8 500.8,8 v 0 q -3,0 -5.72,-0.82 -2.72,-0.82 -4.4,-2.34 v 0 l 1.84,-2.96 q 1.48,1.28 3.66,2.02 2.18,0.74 4.5,0.74 v 0 q 3.72,0 5.5,-1.76 1.78,-1.76 1.78,-5.36 v 0 -1.68 q -1.36,1.64 -3.34,2.46 -1.98,0.82 -4.3,0.82 v 0 q -3.04,0 -5.5,-1.3 -2.46,-1.3 -3.86,-3.64 -1.4,-2.34 -1.4,-5.34 v 0 q 0,-3 1.4,-5.34 1.4,-2.34 3.86,-3.62 2.46,-1.28 5.5,-1.28 v 0 q 2.4,0 4.46,0.88 2.06,0.88 3.38,2.6 v 0 z m -7.4,16.96 q 2.08,0 3.74,-0.88 1.66,-0.88 2.6,-2.46 0.94,-1.58 0.94,-3.58 v 0 q 0,-3.08 -2.04,-4.98 -2.04,-1.9 -5.24,-1.9 v 0 q -3.24,0 -5.28,1.9 -2.04,1.9 -2.04,4.98 v 0 q 0,2 0.94,3.58 0.94,1.58 2.6,2.46 1.66,0.88 3.78,0.88 z M 520.32,0 v -21.2 h 3.84 V 0 Z m 1.92,-25.28 q -1.12,0 -1.86,-0.72 -0.74,-0.72 -0.74,-1.76 v 0 q 0,-1.04 0.74,-1.78 0.74,-0.74 1.86,-0.74 v 0 q 1.12,0 1.86,0.7 0.74,0.7 0.74,1.74 v 0 q 0,1.08 -0.74,1.82 -0.74,0.74 -1.86,0.74 z m 29.6,14.8 q 0,0.44 -0.08,1.16 v 0 h -17.2 q 0.36,2.8 2.46,4.5 2.1,1.7 5.22,1.7 v 0 q 3.8,0 6.12,-2.56 v 0 l 2.12,2.48 q -1.44,1.68 -3.58,2.56 -2.14,0.88 -4.78,0.88 v 0 q -3.36,0 -5.96,-1.38 -2.6,-1.38 -4.02,-3.86 -1.42,-2.48 -1.42,-5.6 v 0 q 0,-3.08 1.38,-5.56 1.38,-2.48 3.8,-3.86 2.42,-1.38 5.46,-1.38 v 0 q 3.04,0 5.42,1.38 2.38,1.38 3.72,3.86 1.34,2.48 1.34,5.68 z m -10.48,-7.68 q -2.76,0 -4.62,1.68 -1.86,1.68 -2.18,4.4 v 0 h 13.6 q -0.32,-2.68 -2.18,-4.38 -1.86,-1.7 -4.62,-1.7 z m 23.08,18.4 q -2.6,0 -5,-0.7 -2.4,-0.7 -3.76,-1.78 v 0 l 1.6,-3.04 q 1.4,1 3.4,1.6 2,0.6 4.04,0.6 v 0 q 5.04,0 5.04,-2.88 v 0 q 0,-0.96 -0.68,-1.52 -0.68,-0.56 -1.7,-0.82 -1.02,-0.26 -2.9,-0.58 v 0 q -2.56,-0.4 -4.18,-0.92 -1.62,-0.52 -2.78,-1.76 -1.16,-1.24 -1.16,-3.48 v 0 q 0,-2.88 2.4,-4.62 2.4,-1.74 6.44,-1.74 v 0 q 2.12,0 4.24,0.52 2.12,0.52 3.48,1.4 v 0 l -1.64,3.04 q -2.6,-1.68 -6.12,-1.68 v 0 q -2.44,0 -3.72,0.8 -1.28,0.8 -1.28,2.12 v 0 q 0,1.04 0.72,1.64 0.72,0.6 1.78,0.88 1.06,0.28 2.98,0.64 v 0 q 2.56,0.44 4.14,0.94 1.58,0.5 2.7,1.7 1.12,1.2 1.12,3.36 v 0 q 0,2.88 -2.46,4.58 -2.46,1.7 -6.7,1.7 z" />
      </g>
    </svg>
    <text
       xml:space="preserve"
       id="text220"
       style="fill:black;fill-opacity:1;line-height:1.25;stroke:none;font-family:sans-serif;font-style:normal;font-weight:normal;font-size:3.04000000999999997px;white-space:pre;shape-inside:url(#rect222);" />
    <text
       xml:space="preserve"
       id="text226"
       style="line-height:1.25;font-family:sans-serif;font-size:4.86400000999999982px;white-space:pre;shape-inside:url(#rect228);" />
  </g>
  <g
     opacity="1"
     transform="rotate(0 270.6308 276.5217)"
     id="g206">
    <svg
       width="364.3692"
       height="64.362"
       x="270.6308"
       y="276.5217"
       version="1.1"
       preserveAspectRatio="none"
       viewBox="1.36 -28.84 166.44 29.4"
       id="svg204">
      <g
         transform="translate(0,-2.8467239)"
         class="companyName"
         id="g202">
        <path
           id="id-D6z1nYkh7"
           d="m 13.72,-28.32 v 0.8 q -1.36,0.08 -1.96,0.32 -0.6,0.24 -0.82,0.92 -0.22,0.68 -0.22,2.2 v 0 19.84 q 0,1.52 0.22,2.2 0.22,0.68 0.82,0.92 0.6,0.24 1.96,0.32 v 0 V 0 Q 11.56,-0.12 7.68,-0.12 v 0 Q 3.4,-0.12 1.36,0 v 0 -0.8 q 1.32,-0.08 1.94,-0.32 0.62,-0.24 0.84,-0.92 0.22,-0.68 0.22,-2.2 v 0 -19.84 q 0,-1.52 -0.22,-2.2 -0.22,-0.68 -0.84,-0.92 -0.62,-0.24 -1.94,-0.32 v 0 -0.8 q 2.04,0.12 6.32,0.12 v 0 q 3.88,0 6.04,-0.12 z m 29.04,0 v 0.8 q -1.32,0.2 -1.94,0.68 -0.62,0.48 -0.84,1.52 -0.22,1.04 -0.22,3.08 v 0 22.32 l -0.96,-0.04 -1.08,0.04 -17.36,-22 v 15.36 q 0,2.36 0.24,3.46 0.24,1.1 1.04,1.6 0.8,0.5 2.6,0.7 v 0 0.8 q -1.56,-0.12 -4.32,-0.12 v 0 q -2.2,0 -3.48,0.12 V 0 -0.8 Q 17.76,-1 18.38,-1.48 19,-1.96 19.22,-3 q 0.22,-1.04 0.22,-3.08 v 0 -18 q 0,-1.52 -0.22,-2.2 -0.22,-0.68 -0.84,-0.92 -0.62,-0.24 -1.94,-0.32 v 0 -0.8 q 1.28,0.12 3.48,0.12 v 0 q 2,0 3.44,-0.12 v 0 l 15.48,19.08 v -12.52 q 0,-2.36 -0.24,-3.46 -0.24,-1.1 -1.04,-1.6 -0.8,-0.5 -2.6,-0.7 v 0 -0.8 q 1.56,0.12 4.32,0.12 v 0 q 2.24,0 3.48,-0.12 z M 68,-28.2 q 1.84,0 3.04,-0.12 v 0 0.8 q -1,0.36 -1.96,1.52 -0.96,1.16 -1.72,3.24 v 0 L 58.92,0.08 Q 58.48,0.04 57.52,0.04 v 0 q -0.92,0 -1.36,0.04 v 0 l -10.2,-25.04 q -0.52,-1.32 -1.2,-1.92 -0.68,-0.6 -1.32,-0.64 v 0 -0.8 q 2.4,0.12 6.08,0.12 v 0 q 4.12,0 6.08,-0.12 v 0 0.8 q -1.52,0.08 -2.16,0.36 -0.64,0.28 -0.64,1.12 v 0 q 0,0.68 0.48,1.88 v 0 l 7.04,17.92 4.92,-13.28 q 1.12,-3.08 1.12,-4.88 v 0 q 0,-1.6 -0.86,-2.32 -0.86,-0.72 -2.5,-0.8 v 0 -0.8 q 2.72,0.12 5,0.12 z m 25.92,22.12 q 0,3.68 0.28,6.08 v 0 q -2.72,-0.12 -9.16,-0.12 v 0 Q 76.32,-0.12 72,0 v 0 -0.8 q 1.32,-0.08 1.94,-0.32 0.62,-0.24 0.84,-0.92 Q 75,-2.72 75,-4.24 v 0 -19.84 q 0,-1.52 -0.22,-2.2 -0.22,-0.68 -0.84,-0.92 -0.62,-0.24 -1.94,-0.32 v 0 -0.8 q 4.32,0.12 13.04,0.12 v 0 q 5.88,0 8.36,-0.12 v 0 q -0.28,3.32 -0.28,5.92 v 0 q 0,1.76 0.12,2.72 v 0 h -0.92 q -0.6,-4.28 -2.16,-6 -1.56,-1.72 -4.4,-1.72 v 0 h -1.64 q -1.24,0 -1.8,0.2 -0.56,0.2 -0.76,0.78 -0.2,0.58 -0.2,1.86 v 0 9.92 h 1.28 q 2.12,0 3.22,-1.56 1.1,-1.56 1.54,-3.72 v 0 h 0.92 q -0.12,1.68 -0.12,3.76 v 0 1.92 q 0,2.04 0.24,5.68 v 0 h -0.92 q -0.84,-5.28 -4.88,-5.28 v 0 h -1.28 v 10.08 q 0,1.28 0.2,1.86 0.2,0.58 0.76,0.78 0.56,0.2 1.8,0.2 v 0 h 1.96 q 2.84,0 4.58,-1.94 1.74,-1.94 2.46,-6.58 v 0 h 0.92 q -0.12,1.32 -0.12,3.36 z m 16.04,-22.24 v 0.8 q -1.44,0.08 -2.1,0.32 -0.66,0.24 -0.9,0.92 -0.24,0.68 -0.24,2.2 v 0 20.32 q 0,1.28 0.2,1.86 0.2,0.58 0.7,0.78 0.5,0.2 1.62,0.2 v 0 h 1.96 q 2.72,0 4.7,-2.44 1.98,-2.44 2.58,-6.48 v 0 h 0.92 q -0.12,1.36 -0.12,3.52 v 0 q 0,3.84 0.28,6.32 v 0 q -2.72,-0.12 -9.16,-0.12 v 0 q -8.72,0 -13.04,0.12 v 0 -0.8 q 1.32,-0.08 1.94,-0.32 0.62,-0.24 0.84,-0.92 0.22,-0.68 0.22,-2.2 v 0 -19.84 q 0,-1.52 -0.22,-2.2 -0.22,-0.68 -0.84,-0.92 -0.62,-0.24 -1.94,-0.32 v 0 -0.8 q 2.04,0.12 6.32,0.12 v 0 q 4.08,0 6.28,-0.12 z m 23.32,16.88 h -2.12 v 6.96 q 0,1.6 0.34,2.34 0.34,0.74 1.2,0.98 0.86,0.24 2.74,0.28 v 0 V 0 q -4.92,-0.12 -7.32,-0.12 v 0 q -2,0 -5.04,0.08 v 0 L 121.8,0 v -0.8 q 1.32,-0.08 1.94,-0.32 0.62,-0.24 0.84,-0.92 0.22,-0.68 0.22,-2.2 v 0 -19.84 q 0,-1.52 -0.22,-2.2 -0.22,-0.68 -0.84,-0.92 -0.62,-0.24 -1.94,-0.32 v 0 -0.8 q 2.04,0.12 6.08,0.12 v 0 l 4.44,-0.04 q 0.8,-0.04 1.84,-0.04 v 0 q 5.4,0 8.24,2.14 2.84,2.14 2.84,5.74 v 0 q 0,2.2 -1.12,4.22 -1.12,2.02 -3.78,3.38 -2.66,1.36 -7.06,1.36 z m 0.36,-16.08 q -1.08,0 -1.58,0.28 -0.5,0.28 -0.7,1 -0.2,0.72 -0.2,2.16 v 0 11.84 h 1.72 q 3.24,0 4.48,-2.08 1.24,-2.08 1.24,-5.64 v 0 q 0,-3.88 -1.14,-5.72 -1.14,-1.84 -3.82,-1.84 z m 23.8,-1.32 q 2.08,0 3.32,0.4 1.24,0.4 2.52,1.16 v 0 q 0.44,0.24 0.78,0.4 0.34,0.16 0.58,0.16 v 0 q 0.36,0 0.56,-0.42 0.2,-0.42 0.32,-1.34 v 0 h 0.92 q -0.2,2.68 -0.2,9.12 v 0 h -0.92 q -0.16,-2.16 -0.98,-4.12 -0.82,-1.96 -2.32,-3.18 -1.5,-1.22 -3.5,-1.22 v 0 q -1.96,0 -3.18,1.1 -1.22,1.1 -1.22,2.98 v 0 q 0,1.4 0.6,2.44 0.6,1.04 1.68,1.9 1.08,0.86 3.32,2.34 v 0 l 1.28,0.88 q 2.36,1.56 3.72,2.72 1.36,1.16 2.22,2.7 0.86,1.54 0.86,3.58 v 0 q 0,2.56 -1.32,4.3 -1.32,1.74 -3.58,2.62 -2.26,0.88 -5.02,0.88 v 0 q -2.24,0 -3.72,-0.4 -1.48,-0.4 -2.72,-1.08 v 0 q -0.88,-0.56 -1.36,-0.56 v 0 q -0.36,0 -0.56,0.42 -0.2,0.42 -0.32,1.34 v 0 h -0.92 q 0.16,-2.52 0.16,-10.8 v 0 h 0.92 q 0.28,4.48 2,7.26 1.72,2.78 5.28,2.78 v 0 q 2.16,0 3.56,-1.16 1.4,-1.16 1.4,-3.32 v 0 q 0,-2.24 -1.44,-3.84 -1.44,-1.6 -4.56,-3.6 v 0 q -2.4,-1.56 -3.84,-2.72 -1.44,-1.16 -2.36,-2.74 -0.92,-1.58 -0.92,-3.66 v 0 q 0,-2.4 1.22,-4.06 1.22,-1.66 3.26,-2.46 2.04,-0.8 4.48,-0.8 z" />
      </g>
    </svg>
  </g>
  <g
     opacity="1"
     transform="rotate(0 255 259.5217)"
     id="g212">
    <svg
       width="2.7584"
       height="64.362"
       x="255"
       y="259.5217"
       version="1.1"
       preserveAspectRatio="none"
       viewBox="0 0 2.7584 64.362"
       id="svg210">
      <rect
         x="0"
         y="0"
         width="2.7584"
         height="64.362"
         class="companyName shapeStroke-str"
         style="stroke-width:0;"
         rx="0px"
         ry="0px"
         id="rect208" />
    </svg>
  </g>
</svg>
