<?xml version="1.0" encoding="UTF-8" standalone="no"?>
<svg
   xmlns:dc="http://purl.org/dc/elements/1.1/"
   xmlns:cc="http://creativecommons.org/ns#"
   xmlns:rdf="http://www.w3.org/1999/02/22-rdf-syntax-ns#"
   xmlns:svg="http://www.w3.org/2000/svg"
   xmlns="http://www.w3.org/2000/svg"
   xmlns:sodipodi="http://sodipodi.sourceforge.net/DTD/sodipodi-0.dtd"
   xmlns:inkscape="http://www.inkscape.org/namespaces/inkscape"
   inkscape:version="1.0 (4035a4f, 2020-05-01)"
   sodipodi:docname="Original_v2.svg"
   id="svg214"
   version="1.1"
   preserveAspectRatio="none"
   height="1552.0592105263158"
   width="5000"
   viewBox="255 259.5217 380 117.9565">
  <metadata
     id="metadata218">
    <rdf:RDF>
      <cc:Work
         rdf:about="">
        <dc:format>image/svg+xml</dc:format>
        <dc:type
           rdf:resource="http://purl.org/dc/dcmitype/StillImage" />
        <dc:title></dc:title>
      </cc:Work>
    </rdf:RDF>
  </metadata>
  <sodipodi:namedview
     inkscape:current-layer="svg197"
     inkscape:window-maximized="0"
     inkscape:window-y="0"
     inkscape:window-x="0"
     inkscape:cy="486.96918"
     inkscape:cx="1642.0986"
     inkscape:zoom="0.23661513"
     showgrid="false"
     id="namedview216"
     inkscape:window-height="800"
     inkscape:window-width="1280"
     inkscape:pageshadow="2"
     inkscape:pageopacity="0"
     guidetolerance="10"
     gridtolerance="10"
     objecttolerance="10"
     borderopacity="1"
     bordercolor="#666666"
     pagecolor="#ffffff" />
  <defs
     id="defs190">
    <rect
       id="rect228"
       height="7.7353619"
       width="0.47878524"
       y="359.8417"
       x="558.66222" />
    <rect
       id="rect222"
       height="19.156559"
       width="328.39782"
       y="356.89847"
       x="257.28662" />
  </defs>
  <style
     id="style192">.a6izo4zJpcolor {fill:#CCBF90;fill-opacity:1;}.companyName {fill:#CCBF90;fill-opacity:1;}.icon3-str {stroke:#EB63DD;stroke-opacity:1;}.shapeStroke-str {stroke:#CCBF90;stroke-opacity:1;}</style>
  <g
     id="g199"
     transform="rotate(0 255 355.5951)"
     opacity="1">
    <svg
       inkscape:transform-center-x="254.68118"
       inkscape:transform-center-y="822.77219"
       id="svg197"
       viewBox="4.2 -30.28 569.4 38.28"
       preserveAspectRatio="none"
       version="1.1"
       y="355.59509"
       x="255"
       height="21.883101"
       width="325.50089">
      <g
         transform="matrix(1.0581507,0,0,1.4521404,0.41796647,-3.1304977)"
         id="g195"
         class="a6izo4zJpcolor">
        <path
           d="m 4.2,0 v -28 h 4 V 0 Z m 24.36,-21.4 q 4.04,0 6.42,2.34 2.38,2.34 2.38,6.86 v 0 V 0 h -3.84 v -11.76 q 0,-3.08 -1.48,-4.64 -1.48,-1.56 -4.24,-1.56 v 0 q -3.12,0 -4.92,1.82 -1.8,1.82 -1.8,5.22 v 0 V 0 h -3.84 v -21.2 h 3.68 v 3.2 q 1.16,-1.64 3.14,-2.52 1.98,-0.88 4.5,-0.88 z m 31.72,0.2 h 3.76 L 54.76,0 h -3.92 l -9.28,-21.2 h 4 l 7.28,17 z m 27.12,10.72 q 0,0.44 -0.08,1.16 v 0 h -17.2 q 0.36,2.8 2.46,4.5 2.1,1.7 5.22,1.7 v 0 q 3.8,0 6.12,-2.56 v 0 l 2.12,2.48 q -1.44,1.68 -3.58,2.56 -2.14,0.88 -4.78,0.88 v 0 q -3.36,0 -5.96,-1.38 -2.6,-1.38 -4.02,-3.86 -1.42,-2.48 -1.42,-5.6 v 0 q 0,-3.08 1.38,-5.56 1.38,-2.48 3.8,-3.86 2.42,-1.38 5.46,-1.38 v 0 q 3.04,0 5.42,1.38 2.38,1.38 3.72,3.86 1.34,2.48 1.34,5.68 z m -10.48,-7.68 q -2.76,0 -4.62,1.68 -1.86,1.68 -2.18,4.4 v 0 h 13.6 q -0.32,-2.68 -2.18,-4.38 -1.86,-1.7 -4.62,-1.7 z M 100,0.24 q -2.6,0 -5,-0.7 -2.4,-0.7 -3.76,-1.78 v 0 l 1.6,-3.04 q 1.4,1 3.4,1.6 2,0.6 4.04,0.6 v 0 q 5.04,0 5.04,-2.88 v 0 q 0,-0.96 -0.68,-1.52 -0.68,-0.56 -1.7,-0.82 -1.02,-0.26 -2.9,-0.58 v 0 q -2.56,-0.4 -4.18,-0.92 -1.62,-0.52 -2.78,-1.76 -1.16,-1.24 -1.16,-3.48 v 0 q 0,-2.88 2.4,-4.62 2.4,-1.74 6.44,-1.74 v 0 q 2.12,0 4.24,0.52 2.12,0.52 3.48,1.4 v 0 l -1.64,3.04 q -2.6,-1.68 -6.12,-1.68 v 0 q -2.44,0 -3.72,0.8 -1.28,0.8 -1.28,2.12 v 0 q 0,1.04 0.72,1.64 0.72,0.6 1.78,0.88 1.06,0.28 2.98,0.64 v 0 q 2.56,0.44 4.14,0.94 1.58,0.5 2.7,1.7 1.12,1.2 1.12,3.36 v 0 q 0,2.88 -2.46,4.58 -2.46,1.7 -6.7,1.7 z m 25.88,-4.24 1.2,2.76 q -0.84,0.72 -2.08,1.1 -1.24,0.38 -2.56,0.38 v 0 q -3.2,0 -4.96,-1.72 -1.76,-1.72 -1.76,-4.92 v 0 -11.64 h -3.6 v -3.16 h 3.6 v -4.64 h 3.84 v 4.64 h 6.08 v 3.16 h -6.08 v 11.48 q 0,1.72 0.86,2.64 0.86,0.92 2.46,0.92 v 0 q 1.76,0 3,-1 z m 33.56,-17.4 q 4,0 6.34,2.32 2.34,2.32 2.34,6.88 v 0 V 0 h -3.84 v -11.76 q 0,-3.08 -1.42,-4.64 -1.42,-1.56 -4.06,-1.56 v 0 q -2.92,0 -4.64,1.82 -1.72,1.82 -1.72,5.22 v 0 V 0 h -3.84 v -11.76 q 0,-3.08 -1.42,-4.64 -1.42,-1.56 -4.06,-1.56 v 0 q -2.92,0 -4.64,1.82 -1.72,1.82 -1.72,5.22 v 0 V 0 h -3.84 v -21.2 h 3.68 v 3.16 q 1.16,-1.64 3.04,-2.5 1.88,-0.86 4.28,-0.86 v 0 q 2.48,0 4.4,1 1.92,1 2.96,2.92 v 0 q 1.2,-1.84 3.34,-2.88 2.14,-1.04 4.82,-1.04 z m 36.24,10.92 q 0,0.44 -0.08,1.16 v 0 h -17.2 q 0.36,2.8 2.46,4.5 2.1,1.7 5.22,1.7 v 0 q 3.8,0 6.12,-2.56 v 0 l 2.12,2.48 q -1.44,1.68 -3.58,2.56 -2.14,0.88 -4.78,0.88 v 0 q -3.36,0 -5.96,-1.38 -2.6,-1.38 -4.02,-3.86 -1.42,-2.48 -1.42,-5.6 v 0 q 0,-3.08 1.38,-5.56 1.38,-2.48 3.8,-3.86 2.42,-1.38 5.46,-1.38 v 0 q 3.04,0 5.42,1.38 2.38,1.38 3.72,3.86 1.34,2.48 1.34,5.68 z m -10.48,-7.68 q -2.76,0 -4.62,1.68 -1.86,1.68 -2.18,4.4 v 0 H 192 q -0.32,-2.68 -2.18,-4.38 -1.86,-1.7 -4.62,-1.7 z m 28.32,-3.24 q 4.04,0 6.42,2.34 2.38,2.34 2.38,6.86 v 0 V 0 h -3.84 v -11.76 q 0,-3.08 -1.48,-4.64 -1.48,-1.56 -4.24,-1.56 v 0 q -3.12,0 -4.92,1.82 -1.8,1.82 -1.8,5.22 v 0 V 0 h -3.84 v -21.2 h 3.68 v 3.2 q 1.16,-1.64 3.14,-2.52 1.98,-0.88 4.5,-0.88 z m 27.84,17.4 1.2,2.76 q -0.84,0.72 -2.08,1.1 -1.24,0.38 -2.56,0.38 v 0 q -3.2,0 -4.96,-1.72 -1.76,-1.72 -1.76,-4.92 v 0 -11.64 h -3.6 v -3.16 h 3.6 v -4.64 h 3.84 v 4.64 h 6.08 v 3.16 h -6.08 v 11.48 q 0,1.72 0.86,2.64 0.86,0.92 2.46,0.92 v 0 q 1.76,0 3,-1 z m 30.32,-17.4 q 4.04,0 6.42,2.34 2.38,2.34 2.38,6.86 v 0 V 0 h -3.84 v -11.76 q 0,-3.08 -1.48,-4.64 -1.48,-1.56 -4.24,-1.56 v 0 q -3.12,0 -4.92,1.82 -1.8,1.82 -1.8,5.22 v 0 V 0 h -3.84 v -29.68 h 3.84 v 11.48 q 1.2,-1.52 3.14,-2.36 1.94,-0.84 4.34,-0.84 z m 36.4,10.92 q 0,0.44 -0.08,1.16 v 0 h -17.2 q 0.36,2.8 2.46,4.5 2.1,1.7 5.22,1.7 v 0 q 3.8,0 6.12,-2.56 v 0 l 2.12,2.48 q -1.44,1.68 -3.58,2.56 -2.14,0.88 -4.78,0.88 v 0 q -3.36,0 -5.96,-1.38 -2.6,-1.38 -4.02,-3.86 -1.42,-2.48 -1.42,-5.6 v 0 q 0,-3.08 1.38,-5.56 1.38,-2.48 3.8,-3.86 2.42,-1.38 5.46,-1.38 v 0 q 3.04,0 5.42,1.38 2.38,1.38 3.72,3.86 1.34,2.48 1.34,5.68 z m -10.48,-7.68 q -2.76,0 -4.62,1.68 -1.86,1.68 -2.18,4.4 v 0 h 13.6 q -0.32,-2.68 -2.18,-4.38 -1.86,-1.7 -4.62,-1.7 z M 314.6,0 v -29.68 h 3.84 V 0 Z m 23.6,-21.4 q 3.08,0 5.52,1.36 2.44,1.36 3.82,3.8 1.38,2.44 1.38,5.64 v 0 q 0,3.2 -1.38,5.66 -1.38,2.46 -3.82,3.82 -2.44,1.36 -5.52,1.36 v 0 q -2.28,0 -4.18,-0.88 -1.9,-0.88 -3.22,-2.56 v 0 10.96 h -3.84 V -21.2 h 3.68 v 3.36 q 1.28,-1.76 3.24,-2.66 1.96,-0.9 4.32,-0.9 z m -0.32,18.28 q 2.04,0 3.66,-0.94 1.62,-0.94 2.56,-2.64 0.94,-1.7 0.94,-3.9 v 0 q 0,-2.2 -0.94,-3.9 -0.94,-1.7 -2.56,-2.62 -1.62,-0.92 -3.66,-0.92 v 0 q -2,0 -3.62,0.94 -1.62,0.94 -2.56,2.62 -0.94,1.68 -0.94,3.88 v 0 q 0,2.2 0.92,3.9 0.92,1.7 2.56,2.64 1.64,0.94 3.64,0.94 z m 35.6,3.36 q -2.6,0 -5,-0.7 -2.4,-0.7 -3.76,-1.78 v 0 l 1.6,-3.04 q 1.4,1 3.4,1.6 2,0.6 4.04,0.6 v 0 q 5.04,0 5.04,-2.88 v 0 q 0,-0.96 -0.68,-1.52 -0.68,-0.56 -1.7,-0.82 -1.02,-0.26 -2.9,-0.58 v 0 q -2.56,-0.4 -4.18,-0.92 -1.62,-0.52 -2.78,-1.76 -1.16,-1.24 -1.16,-3.48 v 0 q 0,-2.88 2.4,-4.62 2.4,-1.74 6.44,-1.74 v 0 q 2.12,0 4.24,0.52 2.12,0.52 3.48,1.4 v 0 l -1.64,3.04 q -2.6,-1.68 -6.12,-1.68 v 0 q -2.44,0 -3.72,0.8 -1.28,0.8 -1.28,2.12 v 0 q 0,1.04 0.72,1.64 0.72,0.6 1.78,0.88 1.06,0.28 2.98,0.64 v 0 q 2.56,0.44 4.14,0.94 1.58,0.5 2.7,1.7 1.12,1.2 1.12,3.36 v 0 q 0,2.88 -2.46,4.58 -2.46,1.7 -6.7,1.7 z m 25.88,-4.24 1.2,2.76 q -0.84,0.72 -2.08,1.1 -1.24,0.38 -2.56,0.38 v 0 q -3.2,0 -4.96,-1.72 -1.76,-1.72 -1.76,-4.92 v 0 -11.64 h -3.6 v -3.16 h 3.6 v -4.64 h 3.84 v 4.64 h 6.08 v 3.16 h -6.08 v 11.48 q 0,1.72 0.86,2.64 0.86,0.92 2.46,0.92 v 0 q 1.76,0 3,-1 z m 10.72,-13.64 q 1,-1.84 2.96,-2.8 1.96,-0.96 4.76,-0.96 v 0 3.72 q -0.32,-0.04 -0.88,-0.04 v 0 q -3.12,0 -4.9,1.86 -1.78,1.86 -1.78,5.3 v 0 V 0 h -3.84 v -21.2 h 3.68 z m 21.32,-3.76 q 4.4,0 6.74,2.16 2.34,2.16 2.34,6.44 v 0 V 0 h -3.64 v -2.8 q -0.96,1.48 -2.74,2.26 -1.78,0.78 -4.22,0.78 v 0 q -3.56,0 -5.7,-1.72 -2.14,-1.72 -2.14,-4.52 v 0 q 0,-2.8 2.04,-4.5 2.04,-1.7 6.48,-1.7 v 0 h 6.08 v -0.76 q 0,-2.48 -1.44,-3.8 -1.44,-1.32 -4.24,-1.32 v 0 q -1.88,0 -3.68,0.62 -1.8,0.62 -3.04,1.66 v 0 l -1.6,-2.88 q 1.64,-1.32 3.92,-2.02 2.28,-0.7 4.84,-0.7 z m -0.88,18.68 q 2.2,0 3.8,-0.98 1.6,-0.98 2.32,-2.78 v 0 -2.96 h -5.92 q -4.88,0 -4.88,3.28 v 0 q 0,1.6 1.24,2.52 1.24,0.92 3.44,0.92 z m 29,-1.28 1.2,2.76 q -0.84,0.72 -2.08,1.1 -1.24,0.38 -2.56,0.38 v 0 q -3.2,0 -4.96,-1.72 -1.76,-1.72 -1.76,-4.92 v 0 -11.64 h -3.6 v -3.16 h 3.6 v -4.64 h 3.84 v 4.64 h 6.08 v 3.16 h -6.08 v 11.48 q 0,1.72 0.86,2.64 0.86,0.92 2.46,0.92 v 0 q 1.76,0 3,-1 z M 485,-10.48 q 0,0.44 -0.08,1.16 v 0 h -17.2 q 0.36,2.8 2.46,4.5 2.1,1.7 5.22,1.7 v 0 q 3.8,0 6.12,-2.56 v 0 l 2.12,2.48 q -1.44,1.68 -3.58,2.56 -2.14,0.88 -4.78,0.88 v 0 q -3.36,0 -5.96,-1.38 -2.6,-1.38 -4.02,-3.86 -1.42,-2.48 -1.42,-5.6 v 0 q 0,-3.08 1.38,-5.56 1.38,-2.48 3.8,-3.86 2.42,-1.38 5.46,-1.38 v 0 q 3.04,0 5.42,1.38 2.38,1.38 3.72,3.86 1.34,2.48 1.34,5.68 z m -10.48,-7.68 q -2.76,0 -4.62,1.68 -1.86,1.68 -2.18,4.4 v 0 h 13.6 q -0.32,-2.68 -2.18,-4.38 -1.86,-1.7 -4.62,-1.7 z m 33.64,-3.04 h 3.64 v 18.32 q 0,5.56 -2.76,8.22 Q 506.28,8 500.8,8 v 0 q -3,0 -5.72,-0.82 -2.72,-0.82 -4.4,-2.34 v 0 l 1.84,-2.96 q 1.48,1.28 3.66,2.02 2.18,0.74 4.5,0.74 v 0 q 3.72,0 5.5,-1.76 1.78,-1.76 1.78,-5.36 v 0 -1.68 q -1.36,1.64 -3.34,2.46 -1.98,0.82 -4.3,0.82 v 0 q -3.04,0 -5.5,-1.3 -2.46,-1.3 -3.86,-3.64 -1.4,-2.34 -1.4,-5.34 v 0 q 0,-3 1.4,-5.34 1.4,-2.34 3.86,-3.62 2.46,-1.28 5.5,-1.28 v 0 q 2.4,0 4.46,0.88 2.06,0.88 3.38,2.6 v 0 z m -7.4,16.96 q 2.08,0 3.74,-0.88 1.66,-0.88 2.6,-2.46 0.94,-1.58 0.94,-3.58 v 0 q 0,-3.08 -2.04,-4.98 -2.04,-1.9 -5.24,-1.9 v 0 q -3.24,0 -5.28,1.9 -2.04,1.9 -2.04,4.98 v 0 q 0,2 0.94,3.58 0.94,1.58 2.6,2.46 1.66,0.88 3.78,0.88 z M 520.32,0 v -21.2 h 3.84 V 0 Z m 1.92,-25.28 q -1.12,0 -1.86,-0.72 -0.74,-0.72 -0.74,-1.76 v 0 q 0,-1.04 0.74,-1.78 0.74,-0.74 1.86,-0.74 v 0 q 1.12,0 1.86,0.7 0.74,0.7 0.74,1.74 v 0 q 0,1.08 -0.74,1.82 -0.74,0.74 -1.86,0.74 z m 29.6,14.8 q 0,0.44 -0.08,1.16 v 0 h -17.2 q 0.36,2.8 2.46,4.5 2.1,1.7 5.22,1.7 v 0 q 3.8,0 6.12,-2.56 v 0 l 2.12,2.48 q -1.44,1.68 -3.58,2.56 -2.14,0.88 -4.78,0.88 v 0 q -3.36,0 -5.96,-1.38 -2.6,-1.38 -4.02,-3.86 -1.42,-2.48 -1.42,-5.6 v 0 q 0,-3.08 1.38,-5.56 1.38,-2.48 3.8,-3.86 2.42,-1.38 5.46,-1.38 v 0 q 3.04,0 5.42,1.38 2.38,1.38 3.72,3.86 1.34,2.48 1.34,5.68 z m -10.48,-7.68 q -2.76,0 -4.62,1.68 -1.86,1.68 -2.18,4.4 v 0 h 13.6 q -0.32,-2.68 -2.18,-4.38 -1.86,-1.7 -4.62,-1.7 z m 23.08,18.4 q -2.6,0 -5,-0.7 -2.4,-0.7 -3.76,-1.78 v 0 l 1.6,-3.04 q 1.4,1 3.4,1.6 2,0.6 4.04,0.6 v 0 q 5.04,0 5.04,-2.88 v 0 q 0,-0.96 -0.68,-1.52 -0.68,-0.56 -1.7,-0.82 -1.02,-0.26 -2.9,-0.58 v 0 q -2.56,-0.4 -4.18,-0.92 -1.62,-0.52 -2.78,-1.76 -1.16,-1.24 -1.16,-3.48 v 0 q 0,-2.88 2.4,-4.62 2.4,-1.74 6.44,-1.74 v 0 q 2.12,0 4.24,0.52 2.12,0.52 3.48,1.4 v 0 l -1.64,3.04 q -2.6,-1.68 -6.12,-1.68 v 0 q -2.44,0 -3.72,0.8 -1.28,0.8 -1.28,2.12 v 0 q 0,1.04 0.72,1.64 0.72,0.6 1.78,0.88 1.06,0.28 2.98,0.64 v 0 q 2.56,0.44 4.14,0.94 1.58,0.5 2.7,1.7 1.12,1.2 1.12,3.36 v 0 q 0,2.88 -2.46,4.58 -2.46,1.7 -6.7,1.7 z"
           id="id-6izo4zJp26" />
      </g>
    </svg>
    <text
       style="fill:black;fill-opacity:1;line-height:1.25;stroke:none;font-family:sans-serif;font-style:normal;font-weight:normal;font-size:3.04000000999999997px;white-space:pre;shape-inside:url(#rect222);"
       id="text220"
       xml:space="preserve" />
    <text
       style="line-height:1.25;font-family:sans-serif;font-size:4.86400000999999982px;white-space:pre;shape-inside:url(#rect228);"
       id="text226"
       xml:space="preserve" />
  </g>
  <g
     id="g206"
     transform="rotate(0 270.6308 276.5217)"
     opacity="1">
    <svg
       id="svg204"
       viewBox="1.36 -28.84 166.44 29.4"
       preserveAspectRatio="none"
       version="1.1"
       y="276.5217"
       x="270.6308"
       height="64.362"
       width="364.3692">
      <g
         id="g202"
         class="companyName"
         transform="matrix(1 0 0 1 0 0)">
        <path
           d="M13.72-28.32L13.72-27.52Q12.36-27.44 11.76-27.20Q11.16-26.96 10.94-26.28Q10.72-25.60 10.72-24.08L10.72-24.08L10.72-4.24Q10.72-2.72 10.94-2.04Q11.16-1.36 11.76-1.12Q12.36-0.88 13.72-0.80L13.72-0.80L13.72 0Q11.56-0.12 7.68-0.12L7.68-0.12Q3.40-0.12 1.36 0L1.36 0L1.36-0.80Q2.68-0.88 3.30-1.12Q3.92-1.36 4.14-2.04Q4.36-2.72 4.36-4.24L4.36-4.24L4.36-24.08Q4.36-25.60 4.14-26.28Q3.92-26.96 3.30-27.20Q2.68-27.44 1.36-27.52L1.36-27.52L1.36-28.32Q3.40-28.20 7.68-28.20L7.68-28.20Q11.56-28.20 13.72-28.32L13.72-28.32Z M42.76-28.32L42.76-27.52Q41.44-27.32 40.82-26.84Q40.20-26.36 39.98-25.32Q39.76-24.28 39.76-22.24L39.76-22.24L39.76 0.08L38.80 0.04L37.72 0.08L20.36-21.92L20.36-6.56Q20.36-4.20 20.60-3.10Q20.84-2 21.64-1.50Q22.44-1 24.24-0.80L24.24-0.80L24.24 0Q22.68-0.12 19.92-0.12L19.92-0.12Q17.72-0.12 16.44 0L16.44 0L16.44-0.80Q17.76-1 18.38-1.48Q19-1.96 19.22-3Q19.44-4.04 19.44-6.08L19.44-6.08L19.44-24.08Q19.44-25.60 19.22-26.28Q19-26.96 18.38-27.20Q17.76-27.44 16.44-27.52L16.44-27.52L16.44-28.32Q17.72-28.20 19.92-28.20L19.92-28.20Q21.92-28.20 23.36-28.32L23.36-28.32L38.84-9.24L38.84-21.76Q38.84-24.12 38.60-25.22Q38.36-26.32 37.56-26.82Q36.76-27.32 34.96-27.52L34.96-27.52L34.96-28.32Q36.52-28.20 39.28-28.20L39.28-28.20Q41.52-28.20 42.76-28.32L42.76-28.32Z M68-28.20Q69.84-28.20 71.04-28.32L71.04-28.32L71.04-27.52Q70.04-27.16 69.08-26Q68.12-24.84 67.36-22.76L67.36-22.76L58.92 0.08Q58.48 0.04 57.52 0.04L57.52 0.04Q56.60 0.04 56.16 0.08L56.16 0.08L45.96-24.96Q45.44-26.28 44.76-26.88Q44.08-27.48 43.44-27.52L43.44-27.52L43.44-28.32Q45.84-28.20 49.52-28.20L49.52-28.20Q53.64-28.20 55.60-28.32L55.60-28.32L55.60-27.52Q54.08-27.44 53.44-27.16Q52.80-26.88 52.80-26.04L52.80-26.04Q52.80-25.36 53.28-24.16L53.28-24.16L60.32-6.24L65.24-19.52Q66.36-22.60 66.36-24.40L66.36-24.40Q66.36-26 65.50-26.72Q64.64-27.44 63-27.52L63-27.52L63-28.32Q65.72-28.20 68-28.20L68-28.20Z M93.92-6.08Q93.92-2.40 94.20 0L94.20 0Q91.48-0.12 85.04-0.12L85.04-0.12Q76.32-0.12 72 0L72 0L72-0.80Q73.32-0.88 73.94-1.12Q74.56-1.36 74.78-2.04Q75-2.72 75-4.24L75-4.24L75-24.08Q75-25.60 74.78-26.28Q74.56-26.96 73.94-27.20Q73.32-27.44 72-27.52L72-27.52L72-28.32Q76.32-28.20 85.04-28.20L85.04-28.20Q90.92-28.20 93.40-28.32L93.40-28.32Q93.12-25 93.12-22.40L93.12-22.40Q93.12-20.64 93.24-19.68L93.24-19.68L92.32-19.68Q91.72-23.96 90.16-25.68Q88.60-27.40 85.76-27.40L85.76-27.40L84.12-27.40Q82.88-27.40 82.32-27.20Q81.76-27 81.56-26.42Q81.36-25.84 81.36-24.56L81.36-24.56L81.36-14.64L82.64-14.64Q84.76-14.64 85.86-16.20Q86.96-17.76 87.40-19.92L87.40-19.92L88.32-19.92Q88.20-18.24 88.20-16.16L88.20-16.16L88.20-14.24Q88.20-12.20 88.44-8.56L88.44-8.56L87.52-8.56Q86.68-13.84 82.64-13.84L82.64-13.84L81.36-13.84L81.36-3.76Q81.36-2.48 81.56-1.90Q81.76-1.32 82.32-1.12Q82.88-0.92 84.12-0.92L84.12-0.92L86.08-0.92Q88.92-0.92 90.66-2.86Q92.40-4.80 93.12-9.44L93.12-9.44L94.04-9.44Q93.92-8.12 93.92-6.08L93.92-6.08Z M109.96-28.32L109.96-27.52Q108.52-27.44 107.86-27.20Q107.20-26.96 106.96-26.28Q106.72-25.60 106.72-24.08L106.72-24.08L106.72-3.76Q106.72-2.48 106.92-1.90Q107.12-1.32 107.62-1.12Q108.12-0.92 109.24-0.92L109.24-0.92L111.20-0.92Q113.92-0.92 115.90-3.36Q117.88-5.80 118.48-9.84L118.48-9.84L119.40-9.84Q119.28-8.48 119.28-6.32L119.28-6.32Q119.28-2.48 119.56 0L119.56 0Q116.84-0.12 110.40-0.12L110.40-0.12Q101.68-0.12 97.36 0L97.36 0L97.36-0.80Q98.68-0.88 99.30-1.12Q99.92-1.36 100.14-2.04Q100.36-2.72 100.36-4.24L100.36-4.24L100.36-24.08Q100.36-25.60 100.14-26.28Q99.92-26.96 99.30-27.20Q98.68-27.44 97.36-27.52L97.36-27.52L97.36-28.32Q99.40-28.20 103.68-28.20L103.68-28.20Q107.76-28.20 109.96-28.32L109.96-28.32Z M133.28-11.44L131.16-11.44L131.16-4.48Q131.16-2.88 131.50-2.14Q131.84-1.40 132.70-1.16Q133.56-0.92 135.44-0.88L135.44-0.88L135.44 0Q130.52-0.12 128.12-0.12L128.12-0.12Q126.12-0.12 123.08-0.04L123.08-0.04L121.80 0L121.80-0.80Q123.12-0.88 123.74-1.12Q124.36-1.36 124.58-2.04Q124.80-2.72 124.80-4.24L124.80-4.24L124.80-24.08Q124.80-25.60 124.58-26.28Q124.36-26.96 123.74-27.20Q123.12-27.44 121.80-27.52L121.80-27.52L121.80-28.32Q123.84-28.20 127.88-28.20L127.88-28.20L132.32-28.24Q133.12-28.28 134.16-28.28L134.16-28.28Q139.56-28.28 142.40-26.14Q145.24-24 145.24-20.40L145.24-20.40Q145.24-18.20 144.12-16.18Q143-14.16 140.34-12.80Q137.68-11.44 133.28-11.44L133.28-11.44ZM133.64-27.52Q132.56-27.52 132.06-27.24Q131.56-26.96 131.36-26.24Q131.16-25.52 131.16-24.08L131.16-24.08L131.16-12.24L132.88-12.24Q136.12-12.24 137.36-14.32Q138.60-16.40 138.60-19.96L138.60-19.96Q138.60-23.84 137.46-25.68Q136.32-27.52 133.64-27.52L133.64-27.52Z M157.44-28.84Q159.52-28.84 160.76-28.44Q162.00-28.04 163.28-27.28L163.28-27.28Q163.72-27.04 164.06-26.88Q164.40-26.72 164.64-26.72L164.64-26.72Q165-26.72 165.20-27.14Q165.40-27.56 165.52-28.48L165.52-28.48L166.44-28.48Q166.24-25.80 166.24-19.36L166.24-19.36L165.32-19.36Q165.16-21.52 164.34-23.48Q163.52-25.44 162.02-26.66Q160.52-27.88 158.52-27.88L158.52-27.88Q156.56-27.88 155.34-26.78Q154.12-25.68 154.12-23.80L154.12-23.80Q154.12-22.40 154.72-21.36Q155.32-20.32 156.40-19.46Q157.48-18.60 159.72-17.12L159.72-17.12L161.00-16.24Q163.36-14.68 164.72-13.52Q166.08-12.36 166.94-10.82Q167.80-9.28 167.80-7.24L167.80-7.24Q167.80-4.68 166.48-2.94Q165.16-1.20 162.90-0.32Q160.64 0.56 157.88 0.56L157.88 0.56Q155.64 0.56 154.16 0.16Q152.68-0.24 151.44-0.92L151.44-0.92Q150.56-1.48 150.08-1.48L150.08-1.48Q149.72-1.48 149.52-1.06Q149.32-0.64 149.20 0.28L149.20 0.28L148.28 0.28Q148.44-2.24 148.44-10.52L148.44-10.52L149.36-10.52Q149.64-6.04 151.36-3.26Q153.08-0.48 156.64-0.48L156.64-0.48Q158.80-0.48 160.20-1.64Q161.60-2.80 161.60-4.96L161.60-4.96Q161.60-7.20 160.16-8.80Q158.72-10.40 155.60-12.40L155.60-12.40Q153.20-13.96 151.76-15.12Q150.32-16.28 149.40-17.86Q148.48-19.44 148.48-21.52L148.48-21.52Q148.48-23.92 149.70-25.58Q150.92-27.24 152.96-28.04Q155.00-28.84 157.44-28.84L157.44-28.84Z"
           id="id-D6z1nYkh7" />
      </g>
    </svg>
  </g>
  <g
     id="g212"
     transform="rotate(0 255 259.5217)"
     opacity="1">
    <svg
       id="svg210"
       viewBox="0 0 2.7584 64.362"
       preserveAspectRatio="none"
       version="1.1"
       y="259.5217"
       x="255"
       height="64.362"
       width="2.7584">
      <rect
         id="rect208"
         ry="0px"
         rx="0px"
         style="stroke-width:0;"
         class="companyName shapeStroke-str"
         height="64.362"
         width="2.7584"
         y="0"
         x="0" />
    </svg>
  </g>
</svg>
